<svg xmlns="http://www.w3.org/2000/svg" width="16" height="16" fill="currentColor" class="d-none">
    <symbol id="pencil-square" viewBox="0 0 16 16">
        <path d="M15.502 1.94a.5.5 0 0 1 0 .706L14.459 3.69l-2-2L13.502.646a.5.5 0 0 1 .707 0l1.293 1.293zm-1.75 2.456-2-2L4.939 9.21a.5.5 0 0 0-.121.196l-.805 2.414a.25.25 0 0 0 .316.316l2.414-.805a.5.5 0 0 0 .196-.12l6.813-6.814z"/>
        <path fill-rule="evenodd"
              d="M1 13.5A1.5 1.5 0 0 0 2.5 15h11a1.5 1.5 0 0 0 1.5-1.5v-6a.5.5 0 0 0-1 0v6a.5.5 0 0 1-.5.5h-11a.5.5 0 0 1-.5-.5v-11a.5.5 0 0 1 .5-.5H9a.5.5 0 0 0 0-1H2.5A1.5 1.5 0 0 0 1 2.5z"/>
    </symbol>
    <symbol id="person-gear" viewBox="0 0 16 16">
        <path d="M11 5a3 3 0 1 1-6 0 3 3 0 0 1 6 0M8 7a2 2 0 1 0 0-4 2 2 0 0 0 0 4m.256 7a4.5 4.5 0 0 1-.229-1.004H3c.001-.246.154-.986.832-1.664C4.484 10.68 5.711 10 8 10q.39 0 .74.025c.226-.341.496-.65.804-.918Q8.844 9.002 8 9c-5 0-6 3-6 4s1 1 1 1zm3.63-4.54c.18-.613 1.048-.613 1.229 0l.043.148a.64.64 0 0 0 .921.382l.136-.074c.561-.306 1.175.308.87.869l-.075.136a.64.64 0 0 0 .382.92l.149.045c.612.18.612 1.048 0 1.229l-.15.043a.64.64 0 0 0-.38.921l.074.136c.305.561-.309 1.175-.87.87l-.136-.075a.64.64 0 0 0-.92.382l-.045.149c-.18.612-1.048.612-1.229 0l-.043-.15a.64.64 0 0 0-.921-.38l-.136.074c-.561.305-1.175-.309-.87-.87l.075-.136a.64.64 0 0 0-.382-.92l-.148-.045c-.613-.18-.613-1.048 0-1.229l.148-.043a.64.64 0 0 0 .382-.921l-.074-.136c-.306-.561.308-1.175.869-.87l.136.075a.64.64 0 0 0 .92-.382zM14 12.5a1.5 1.5 0 1 0-3 0 1.5 1.5 0 0 0 3 0"/>
    </symbol>
    <symbol id="person-x" viewBox="0 0 16 16">
        <path d="M11 5a3 3 0 1 1-6 0 3 3 0 0 1 6 0M8 7a2 2 0 1 0 0-4 2 2 0 0 0 0 4m.256 7a4.5 4.5 0 0 1-.229-1.004H3c.001-.246.154-.986.832-1.664C4.484 10.68 5.711 10 8 10q.39 0 .74.025c.226-.341.496-.65.804-.918Q8.844 9.002 8 9c-5 0-6 3-6 4s1 1 1 1z"/>
        <path d="M12.5 16a3.5 3.5 0 1 0 0-7 3.5 3.5 0 0 0 0 7m-.646-4.854.646.647.646-.647a.5.5 0 0 1 .708.708l-.647.646.647.646a.5.5 0 0 1-.708.708l-.646-.647-.646.647a.5.5 0 0 1-.708-.708l.647-.646-.647-.646a.5.5 0 0 1 .708-.708"/>
    </symbol>


</svg>